<?xml version="1.0" standalone="no"?>
<!DOCTYPE svg PUBLIC "-//W3C//DTD SVG 20010904//EN"
 "http://www.w3.org/TR/2001/REC-SVG-20010904/DTD/svg10.dtd">
<svg version="1.0" xmlns="http://www.w3.org/2000/svg"
 width="200.000000pt" height="200.000000pt" viewBox="0 0 200.000000 200.000000"
 preserveAspectRatio="xMidYMid meet">

<g transform="translate(0.000000,200.000000) scale(0.100000,-0.100000)"
fill="#000000" stroke="none">
<path d="M970 1940 c-8 -5 -10 -10 -5 -10 6 0 17 5 25 10 8 5 11 10 5 10 -5 0
-17 -5 -25 -10z"/>
<path d="M835 1849 c-4 -6 -5 -12 -2 -15 2 -3 7 2 10 11 7 17 1 20 -8 4z"/>
<path d="M858 1811 c-9 -23 -12 -38 -6 -34 8 4 9 0 5 -11 -4 -11 -3 -15 4 -11
6 4 8 14 5 22 -3 8 -1 23 5 34 6 11 9 25 7 31 -2 6 -11 -8 -20 -31z"/>
<path d="M1130 1835 c0 -8 -4 -15 -10 -15 -5 0 -10 -5 -10 -11 0 -6 6 -9 14
-6 10 4 16 -2 19 -16 2 -12 4 -3 3 20 0 24 -4 43 -8 43 -5 0 -8 -7 -8 -15z"/>
<path d="M1110 1761 c0 -5 7 -12 16 -15 14 -5 15 -4 4 9 -14 17 -20 19 -20 6z"/>
<path d="M1085 1718 c-11 -13 -13 -17 -5 -10 23 20 35 14 15 -8 -15 -16 -16
-23 -6 -33 10 -9 11 -8 5 7 -6 15 -4 17 7 11 8 -4 11 -4 6 0 -4 5 1 17 10 28
10 11 13 17 6 14 -6 -4 -13 -2 -15 4 -2 6 -12 0 -23 -13z"/>
<path d="M943 1665 c0 -8 4 -12 9 -9 5 3 6 10 3 15 -9 13 -12 11 -12 -6z"/>
<path d="M1058 1658 c3 -15 2 -19 -7 -14 -7 5 -10 2 -9 -6 2 -7 -3 -12 -10
-10 -7 1 -21 -2 -32 -8 -22 -12 -53 -3 -43 13 3 6 1 7 -6 3 -6 -4 -9 -11 -6
-16 3 -5 6 -220 5 -478 0 -401 2 -471 14 -481 20 -17 55 -4 61 22 3 12 4 222
3 467 l-3 444 27 28 c16 16 25 34 22 43 -9 23 -23 18 -16 -7z"/>
<path d="M1395 488 c3 -14 0 -28 -5 -30 -6 -2 -12 -22 -13 -46 0 -23 -4 -42
-8 -42 -8 0 1 -49 11 -55 10 -6 23 43 15 55 -4 6 -2 10 3 10 5 0 9 6 9 13 0 6
3 23 6 37 5 17 2 15 -8 -7 -8 -18 -17 -33 -19 -33 -5 0 10 55 18 69 3 5 1 20
-4 33 -10 22 -10 22 -5 -4z"/>
<path d="M726 373 c-6 -14 -5 -15 5 -6 7 7 10 15 7 18 -3 3 -9 -2 -12 -12z"/>
<path d="M1355 321 c5 -36 12 -48 20 -39 3 3 -2 20 -10 39 l-16 34 6 -34z"/>
<path d="M780 291 c0 -7 -5 -9 -12 -5 -7 5 -8 3 -3 -5 5 -9 10 -10 18 -2 6 6
8 14 4 18 -4 3 -7 1 -7 -6z"/>
<path d="M730 272 c-13 -14 -12 -15 4 -9 14 6 17 4 12 -10 -6 -14 -4 -15 4 -6
8 7 9 17 4 26 -8 13 -11 13 -24 -1z"/>
<path d="M1338 257 c4 -22 2 -28 -8 -22 -8 5 -11 4 -6 -3 3 -6 0 -17 -8 -25
-8 -8 -12 -17 -9 -21 7 -7 50 41 56 64 2 9 -3 22 -12 27 -15 9 -17 7 -13 -20z"/>
<path d="M1280 194 c0 -13 18 -39 24 -34 2 3 -2 14 -10 24 -8 11 -14 16 -14
10z"/>
<path d="M1240 146 c0 -3 9 -10 19 -15 14 -8 22 -7 32 7 11 14 11 15 -1 5 -9
-8 -19 -9 -32 -2 -10 5 -18 7 -18 5z"/>
<path d="M1192 84 c-21 -21 -39 -31 -50 -28 -14 5 -15 4 -2 -5 12 -9 13 -11 1
-11 -8 0 -12 -3 -9 -6 12 -12 91 42 94 64 2 12 3 21 1 21 -1 -1 -17 -17 -35
-35z"/>
<path d="M1247 113 c-4 -3 -7 -11 -7 -17 0 -6 5 -5 12 2 6 6 9 14 7 17 -3 3
-9 2 -12 -2z"/>
<path d="M1110 41 c0 -9 -9 -11 -27 -7 -27 5 -27 5 -5 -6 17 -9 26 -8 34 0 6
6 9 15 5 19 -4 3 -7 1 -7 -6z"/>
</g>
</svg>
